<svg width="679" height="654" viewBox="0 0 509.25 490.5" xmlns="http://www.w3.org/2000/svg" xmlns:xlink="http://www.w3.org/1999/xlink">
<g id="graph0" class="graph" transform="translate(73.64999816997053,456.7274825027544) scale(0.74535519339946)">
<title>G</title>
<polygon fill="white" stroke="transparent" points="-4,4 -4,-549.01 498,-549.01 498,4 -4,4"/>
<g id="clust1" class="cluster">
<title>cluster_0</title>
<polygon fill="lightgrey" stroke="lightgrey" points="8,-280.21 8,-501.01 292,-501.01 292,-280.21 8,-280.21"/>
<text text-anchor="middle" x="150" y="-484.41" font-family="Helvetica,Arial,sans-serif" font-size="14.00">process #1</text>
</g>
<g id="clust2" class="cluster">
<title>cluster_1</title>
<polygon fill="none" stroke="blue" points="300,-424.21 300,-501.01 486,-501.01 486,-424.21 300,-424.21"/>
<text text-anchor="middle" x="393" y="-484.41" font-family="Helvetica,Arial,sans-serif" font-size="14.00">process #2</text>
</g>
<!-- generated_testing_text -->
<g id="node1" class="node">
<title>generated_testing_text</title>
<ellipse fill="white" stroke="white" cx="168" cy="-450.21" rx="98.41" ry="18"/>
<text text-anchor="middle" x="168" y="-446.01" font-family="Helvetica,Arial,sans-serif" font-size="14.00">generated_testing_text</text>
</g>
<!-- Neural_Space_Translation_API -->
<g id="node2" class="node">
<title>Neural_Space_Translation_API</title>
<ellipse fill="white" stroke="white" cx="150" cy="-378.21" rx="134.29" ry="18"/>
<text text-anchor="middle" x="150" y="-374.01" font-family="Helvetica,Arial,sans-serif" font-size="14.00">Neural_Space_Translation_API</text>
</g>
<!-- generated_testing_text&#45;&gt;Neural_Space_Translation_API -->
<g id="edge1" class="edge">
<title>generated_testing_text-&gt;Neural_Space_Translation_API</title>
<path fill="none" stroke="black" d="M163.55,-431.91C161.55,-424.11 159.13,-414.72 156.9,-406.04"/>
<polygon fill="black" stroke="black" points="160.28,-405.13 154.4,-396.32 153.5,-406.87 160.28,-405.13"/>
</g>
<!-- machine_en_transcriptions -->
<g id="node3" class="node">
<title>machine_en_transcriptions</title>
<ellipse fill="white" stroke="white" cx="159" cy="-306.21" rx="115.17" ry="18"/>
<text text-anchor="middle" x="159" y="-302.01" font-family="Helvetica,Arial,sans-serif" font-size="14.00">machine_en_transcriptions</text>
</g>
<!-- Neural_Space_Translation_API&#45;&gt;machine_en_transcriptions -->
<g id="edge2" class="edge">
<title>Neural_Space_Translation_API-&gt;machine_en_transcriptions</title>
<path fill="none" stroke="black" d="M152.22,-359.91C153.22,-352.2 154.41,-342.93 155.51,-334.33"/>
<polygon fill="black" stroke="black" points="159,-334.68 156.8,-324.32 152.05,-333.79 159,-334.68"/>
</g>
<!-- Neural_Space_Similarity_API -->
<g id="node6" class="node">
<title>Neural_Space_Similarity_API</title>
<ellipse fill="none" stroke="black" cx="260" cy="-234.21" rx="129.08" ry="18"/>
<text text-anchor="middle" x="260" y="-230.01" font-family="Helvetica,Arial,sans-serif" font-size="14.00">Neural_Space_Similarity_API</text>
</g>
<!-- machine_en_transcriptions&#45;&gt;Neural_Space_Similarity_API -->
<g id="edge6" class="edge">
<title>machine_en_transcriptions-&gt;Neural_Space_Similarity_API</title>
<path fill="none" stroke="black" d="M183.19,-288.45C196.34,-279.34 212.78,-267.94 227.08,-258.03"/>
<polygon fill="black" stroke="black" points="229.43,-260.66 235.66,-252.09 225.44,-254.91 229.43,-260.66"/>
</g>
<!-- student_en_answer -->
<g id="node4" class="node">
<title>student_en_answer</title>
<ellipse fill="lightgrey" stroke="black" cx="393" cy="-450.21" rx="85.11" ry="18"/>
<text text-anchor="middle" x="393" y="-446.01" font-family="Helvetica,Arial,sans-serif" font-size="14.00">student_en_answer</text>
</g>
<!-- student_en_answer&#45;&gt;Neural_Space_Similarity_API -->
<g id="edge5" class="edge">
<title>student_en_answer-&gt;Neural_Space_Similarity_API</title>
<path fill="none" stroke="black" d="M384.2,-431.9C368.09,-400.7 332.18,-333.34 296,-280.21 291.41,-273.47 286.09,-266.45 280.97,-260.03"/>
<polygon fill="black" stroke="black" points="283.68,-257.82 274.66,-252.26 278.25,-262.23 283.68,-257.82"/>
</g>
<!-- start -->
<g id="node5" class="node">
<title>start</title>
<polygon fill="none" stroke="black" points="289,-545.01 249.76,-527.01 289,-509.01 328.24,-527.01 289,-545.01"/>
<polyline fill="none" stroke="black" points="260.67,-532.02 260.67,-522.01 "/>
<polyline fill="none" stroke="black" points="278.09,-514.02 299.91,-514.02 "/>
<polyline fill="none" stroke="black" points="317.33,-522.01 317.33,-532.02 "/>
<polyline fill="none" stroke="black" points="299.91,-540.01 278.09,-540.01 "/>
<text text-anchor="middle" x="289" y="-522.81" font-family="Helvetica,Arial,sans-serif" font-size="14.00">start</text>
</g>
<!-- start&#45;&gt;generated_testing_text -->
<g id="edge3" class="edge">
<title>start-&gt;generated_testing_text</title>
<path fill="none" stroke="black" d="M273.18,-516.24C255.46,-505.28 226.18,-487.18 203.01,-472.85"/>
<polygon fill="black" stroke="black" points="204.81,-469.85 194.46,-467.57 201.13,-475.81 204.81,-469.85"/>
</g>
<!-- start&#45;&gt;student_en_answer -->
<g id="edge4" class="edge">
<title>start-&gt;student_en_answer</title>
<path fill="none" stroke="black" d="M303.46,-515.61C318.53,-504.77 342.61,-487.45 362.01,-473.5"/>
<polygon fill="black" stroke="black" points="364.19,-476.25 370.27,-467.57 360.1,-470.56 364.19,-476.25"/>
</g>
<!-- weighting_tactics -->
<g id="node7" class="node">
<title>weighting_tactics</title>
<ellipse fill="none" stroke="black" cx="260" cy="-162.21" rx="79.31" ry="18"/>
<text text-anchor="middle" x="260" y="-158.01" font-family="Helvetica,Arial,sans-serif" font-size="14.00">weighting_tactics</text>
</g>
<!-- Neural_Space_Similarity_API&#45;&gt;weighting_tactics -->
<g id="edge7" class="edge">
<title>Neural_Space_Similarity_API-&gt;weighting_tactics</title>
<path fill="none" stroke="black" d="M260,-215.91C260,-208.2 260,-198.93 260,-190.33"/>
<polygon fill="black" stroke="black" points="263.5,-190.32 260,-180.32 256.5,-190.32 263.5,-190.32"/>
</g>
<!-- score -->
<g id="node8" class="node">
<title>score</title>
<ellipse fill="none" stroke="black" cx="260" cy="-90.21" rx="31.32" ry="18"/>
<text text-anchor="middle" x="260" y="-86.01" font-family="Helvetica,Arial,sans-serif" font-size="14.00">score</text>
</g>
<!-- weighting_tactics&#45;&gt;score -->
<g id="edge8" class="edge">
<title>weighting_tactics-&gt;score</title>
<path fill="none" stroke="black" d="M260,-143.91C260,-136.2 260,-126.93 260,-118.33"/>
<polygon fill="black" stroke="black" points="263.5,-118.32 260,-108.32 256.5,-118.32 263.5,-118.32"/>
</g>
<!-- end -->
<g id="node9" class="node">
<title>end</title>
<polygon fill="none" stroke="black" points="278.21,-36.32 241.79,-36.32 241.79,0.11 278.21,0.11 278.21,-36.32"/>
<polyline fill="none" stroke="black" points="253.79,-36.32 241.79,-24.32 "/>
<polyline fill="none" stroke="black" points="241.79,-11.89 253.79,0.11 "/>
<polyline fill="none" stroke="black" points="266.21,0.11 278.21,-11.89 "/>
<polyline fill="none" stroke="black" points="278.21,-24.32 266.21,-36.32 "/>
<text text-anchor="middle" x="260" y="-13.91" font-family="Helvetica,Arial,sans-serif" font-size="14.00">end</text>
</g>
<!-- score&#45;&gt;end -->
<g id="edge9" class="edge">
<title>score-&gt;end</title>
<path fill="none" stroke="black" d="M260,-71.88C260,-64.16 260,-54.87 260,-46.26"/>
<polygon fill="black" stroke="black" points="263.5,-46.24 260,-36.24 256.5,-46.24 263.5,-46.24"/>
</g>
</g>
</svg>